<svg version="1.1" xmlns="http://www.w3.org/2000/svg" xmlns:xlink="http://www.w3.org/1999/xlink" width="110.93935" height="249.46985" viewBox="0,0,110.93935,249.46985"><g transform="translate(-184.75,-55.28582)"><g data-paper-data="{&quot;isPaintingLayer&quot;:true}" fill-rule="nonzero" stroke-linejoin="miter" stroke-miterlimit="10" stroke-dasharray="" stroke-dashoffset="0" style="mix-blend-mode: normal"><path d="M186.5,302.81081v-245.62162l107,9l-3,225.62162z" fill="#8a8a8a" stroke="#000000" stroke-width="3.5" stroke-linecap="butt"/><path d="M279.05987,291.32954l1.63764,-225.99407l12.75825,1.61411l-3.38047,226.49151z" fill="#8a8a8a" stroke="#000000" stroke-width="3.5" stroke-linecap="round"/><path d="M188.79488,59.14381l102.60917,9.08938l-0.72249,16.51476l-102.05724,-9.61648z" fill="#8a8a8a" stroke="none" stroke-width="0" stroke-linecap="round"/><path d="M188.79488,74.14381l102.60917,9.08938l-0.72249,16.51476l-102.05724,-9.61648z" fill="#8a8a8a" stroke="none" stroke-width="0" stroke-linecap="round"/><path d="M188.79488,89.14381l102.60917,9.08938l-0.72249,16.51476l-102.05724,-9.61648z" fill="#8a8a8a" stroke="none" stroke-width="0" stroke-linecap="round"/><path d="M188.79488,104.14381l102.60917,9.08938l-0.72249,16.51476l-102.05724,-9.61648z" fill="#8a8a8a" stroke="none" stroke-width="0" stroke-linecap="round"/><path d="M188.79488,117.14381l102.60917,9.08938l-0.72249,16.51476l-102.05724,-9.61648z" fill="#8a8a8a" stroke="none" stroke-width="0" stroke-linecap="round"/><path d="M188.79488,132.14381l102.60917,9.08938l-0.72249,16.51476l-102.05724,-9.61648z" fill="#8a8a8a" stroke="none" stroke-width="0" stroke-linecap="round"/><path d="M188.79488,147.14381l102.60917,9.08938l-0.72249,16.51476l-102.05724,-9.61648z" fill="#8a8a8a" stroke="none" stroke-width="0" stroke-linecap="round"/><path d="M188.79488,162.14381l102.60917,9.08938l-0.72249,16.51476l-102.05724,-9.61648z" fill="#8a8a8a" stroke="none" stroke-width="0" stroke-linecap="round"/><path d="M188.79488,176.14381l102.60917,9.08938l-0.72249,16.51476l-102.05724,-9.61648z" fill="#8a8a8a" stroke="none" stroke-width="0" stroke-linecap="round"/><path d="M188.79488,191.14381l102.60917,9.08938l-0.72249,16.51476l-102.05724,-9.61648z" fill="#8a8a8a" stroke="none" stroke-width="0" stroke-linecap="round"/><path d="M188.79488,204.14381l102.60917,9.08938l-0.72249,16.51476l-102.05724,-9.61648z" fill="#8a8a8a" stroke="none" stroke-width="0" stroke-linecap="round"/><path d="M188.79488,219.14381l102.60917,9.08938l-0.72249,16.51476l-102.05724,-9.61648z" fill="#8a8a8a" stroke="none" stroke-width="0" stroke-linecap="round"/><path d="M188.79488,234.14381l102.60917,9.08938l-0.72249,16.51476l-102.05724,-9.61648z" fill="#8a8a8a" stroke="none" stroke-width="0" stroke-linecap="round"/><path d="M188.79488,249.14381l102.60917,9.08938l-0.72249,16.51476l-102.05724,-9.61648z" fill="#8a8a8a" stroke="none" stroke-width="0" stroke-linecap="round"/><path d="M293.93935,67.16625l-4,225" fill="none" stroke="#000000" stroke-width="3.5" stroke-linecap="round"/><path d="M282.15978,282.03471c-0.18926,-0.08938 -0.34617,-0.19672 -0.48385,-0.32347c0.00234,0.09325 0.00458,0.18652 0.00673,0.27981c0.14638,0.04292 0.31124,0.04925 0.47712,0.04366zM281.14289,273.18413c0.31522,0.19226 0.50357,0.38061 0.50357,0.38061l2.16559,2.18279c0.66667,1 1.3151,2.0124 2,3c0.83753,1.20769 2.74708,2.12641 2.56664,3.58497c-0.23949,1.9359 -1.13438,3.2159 -2.34068,3.94833l0.5017,0.22805c0.89206,0.38183 1.51707,1.26761 1.51707,2.29936c0,1.38071 -1.11929,2.5 -2.5,2.5c-0.07984,0 -0.15881,-0.00374 -0.23674,-0.01106l-1.86832,-0.15569c-0.66647,0.38486 -1.38456,0.38486 -1.38456,0.38486h-2.61722c-1.68584,-0.00546 -3.3796,0.11925 -5.04154,0.40219c0,0 -1.01187,0.16865 -1.8473,-0.3583c-5.05937,0.72764 -10.18924,1.33379 -15.17941,1.69457c0,0 -2.49365,0.17812 -2.67176,-2.31553c-0.17812,-2.49365 2.31553,-2.67176 2.31553,-2.67176c6.48259,-0.45695 13.22048,-1.35158 19.70436,-2.39273c-0.00252,-0.7773 -0.00781,-1.55072 -0.01811,-2.32172c-0.05018,-0.08988 -0.09779,-0.18118 -0.14272,-0.27387c-0.57596,-1.18819 -0.15873,-2.63666 -0.1903,-3.95671c-0.02923,-1.22219 -0.03895,-2.44594 -0.03892,-3.67027c-0.06847,-0.74627 -0.14878,-1.49491 -0.24293,-2.24721c0,0 -0.09918,-0.79344 0.26337,-1.53895c0.00939,-1.18191 0.01849,-2.3634 0.01849,-3.54357c0,0 0,-2.5 2.5,-2.5c2.5,0 2.5,2.5 2.5,2.5c0,1.5222 -0.12015,3.17363 -0.2358,4.85162z" fill="#8a8a8a" stroke="none" stroke-width="0.5" stroke-linecap="butt"/></g></g></svg>