<svg version="1.1" xmlns="http://www.w3.org/2000/svg" xmlns:xlink="http://www.w3.org/1999/xlink" width="101.01622" height="249.50549" viewBox="0,0,101.01622,249.50549"><defs><radialGradient cx="212.49819" cy="159.04359" r="27.04762" gradientUnits="userSpaceOnUse" id="color-1"><stop offset="0" stop-color="#ffffff"/><stop offset="1" stop-color="#ffffff" stop-opacity="0"/></radialGradient><radialGradient cx="258.55225" cy="160.50562" r="27.04762" gradientUnits="userSpaceOnUse" id="color-2"><stop offset="0" stop-color="#ffffff"/><stop offset="1" stop-color="#ffffff" stop-opacity="0"/></radialGradient></defs><g transform="translate(-184.75,-55.27022)"><g data-paper-data="{&quot;isPaintingLayer&quot;:true}" fill-rule="nonzero" stroke-linecap="butt" stroke-linejoin="miter" stroke-miterlimit="10" stroke-dasharray="" stroke-dashoffset="0" style="mix-blend-mode: normal"><path d="M186.5,302.81082v-245.62162l97.49678,9l-2.73355,225.62162z" fill="#161616" stroke="#000000" stroke-width="3.5"/><path d="M201.51435,169.29642c-8.07431,-8.07431 0,-29.25927 0,-29.25927c0,0 17.67362,17.67362 22.93782,22.93782c2.76353,2.76353 6.32145,6.32145 6.32145,6.32145c0,0 -21.18495,8.07431 -29.25927,0z" fill="#ffffff" stroke="none" stroke-width="0"/><path d="M238.8627,169.29642c0,0 3.55791,-3.55791 6.32145,-6.32144c5.2642,-5.2642 22.93782,-22.93782 22.93782,-22.93782c0,0 8.07431,21.18495 0,29.25927c-8.07432,8.07432 -29.25927,0 -29.25927,0z" data-paper-data="{&quot;index&quot;:null}" fill="#ffffff" stroke="none" stroke-width="0"/><path d="M185.45057,159.04359c0,-14.93799 12.10963,-27.04762 27.04762,-27.04762c14.93799,0 27.04762,12.10963 27.04762,27.04762c0,14.93799 -12.10963,27.04762 -27.04762,27.04762c-14.93799,0 -27.04762,-12.10963 -27.04762,-27.04762z" fill="url(#color-1)" stroke="none" stroke-width="0"/><path d="M231.50463,160.50562c0,-14.93798 12.10964,-27.04762 27.04762,-27.04762c14.93798,0 27.04762,12.10963 27.04762,27.04762c0,14.93798 -12.10964,27.04762 -27.04762,27.04762c-14.93798,0 -27.04762,-12.10963 -27.04762,-27.04762z" fill="url(#color-2)" stroke="none" stroke-width="0"/></g></g></svg>