<svg version="1.1" xmlns="http://www.w3.org/2000/svg" xmlns:xlink="http://www.w3.org/1999/xlink" width="454.65356" height="511.36315" viewBox="0,0,454.65356,511.36315"><g transform="translate(-12.67322,-58.18399)"><g data-paper-data="{&quot;isPaintingLayer&quot;:true}" fill-rule="nonzero" stroke="#000000" stroke-width="3.5" stroke-linecap="butt" stroke-linejoin="miter" stroke-miterlimit="10" stroke-dasharray="" stroke-dashoffset="0" style="mix-blend-mode: normal"><path d="M14.42322,396.16211v-336.22812h451.15356v336.22812z" fill="#5c5c5c"/><path d="M29.9887,380.49046v-304.88482h420.0226v304.88482z" fill="#000000"/><path d="M422.01264,563.89398c0,-2.15565 1.7475,-3.90316 3.90316,-3.90316c2.15565,0 3.90316,1.7475 3.90316,3.90316c0,2.15565 -1.7475,3.90316 -3.90316,3.90316c-2.15565,0 -3.90316,-1.7475 -3.90316,-3.90316z" fill="#ff0000"/><path d="M409.86949,563.89398c0,-2.15565 1.7475,-3.90316 3.90316,-3.90316c2.15565,0 3.90316,1.7475 3.90316,3.90316c0,2.15565 -1.7475,3.90316 -3.90316,3.90316c-2.15565,0 -3.90316,-1.7475 -3.90316,-3.90316z" fill="#1dff00"/></g></g></svg>