<svg version="1.1" xmlns="http://www.w3.org/2000/svg" xmlns:xlink="http://www.w3.org/1999/xlink" width="20.8406" height="23.69109" viewBox="0,0,20.8406,23.69109"><g transform="translate(-386.05395,-17.99859)"><g data-paper-data="{&quot;isPaintingLayer&quot;:true}" fill="#ffffff" fill-rule="nonzero" stroke="none" stroke-width="0.5" stroke-linecap="butt" stroke-linejoin="miter" stroke-miterlimit="10" stroke-dasharray="" stroke-dashoffset="0" style="mix-blend-mode: normal"><path d="M389.89987,20.49859c0,-1.38071 1.11929,-2.5 2.5,-2.5c1.38071,0 2.5,1.11929 2.5,2.5c0,1.38071 -1.11929,2.5 -2.5,2.5c-1.38071,0 -2.5,-1.11929 -2.5,-2.5z"/><path d="M401.89455,26.49593c0,-1.38071 1.11929,-2.5 2.5,-2.5c1.38071,0 2.5,1.11929 2.5,2.5c0,1.38071 -1.11929,2.5 -2.5,2.5c-1.38071,0 -2.5,-1.11929 -2.5,-2.5z"/><path d="M397.51977,34.16814c0.01264,-0.04924 0.02692,-0.10002 0.04305,-0.15194c-2.26034,-0.69767 -4.3807,-1.63091 -6.56311,-2.48731c-0.12803,1.48077 -0.37797,4.30253 0.35735,4.80986c1.78007,1.22816 4.46746,-0.82935 6.16271,-2.17062zM401.37524,37.50196c-3.47818,2.48219 -8.68496,6.2678 -13.09524,2.77783c-1.17007,-0.92591 -1.70696,-2.49959 -2.15754,-3.92203c-0.08504,-0.26845 -0.06687,-5.05893 -0.06687,-5.62619c0,0 0,-1.0516 0.68203,-1.79074c-0.11978,-0.41353 -0.12496,-0.91766 0.07773,-1.52574c0.79057,-2.37171 3.16228,-1.58113 3.16228,-1.58113c3.49619,1.1731 6.64159,2.84309 10.23512,3.7352l2.58863,1.07471c0,0 2.29787,0.9848 1.31306,3.28266c-0.4733,1.10435 -1.24987,1.45049 -1.9289,1.51213z"/></g></g></svg>