<svg version="1.1" xmlns="http://www.w3.org/2000/svg" xmlns:xlink="http://www.w3.org/1999/xlink" width="213.72872" height="287.86415" viewBox="0,0,213.72872,287.86415"><g transform="translate(-255.68415,-56.9362)"><g data-paper-data="{&quot;isPaintingLayer&quot;:true}" fill-rule="nonzero" stroke-linecap="butt" stroke-linejoin="miter" stroke-miterlimit="10" stroke-dasharray="" stroke-dashoffset="0" style="mix-blend-mode: normal"><g><path d="M365.07138,334.74384v-26.95302h26.95303v26.95302z" fill="none" stroke="#ffffff" stroke-width="3"/><path d="M351.80878,327.04297v-11.12347h13.2626v11.12347z" fill="none" stroke="#ffffff" stroke-width="3"/><path d="M392.45223,327.04297v-11.12347h13.2626v11.12347z" fill="none" stroke="#ffffff" stroke-width="3"/><path d="M309.53009,343.30035v-66.99724h41.42304v66.99724z" fill="none" stroke="#ffffff" stroke-width="3"/><path d="M290.20187,263.72475v-76.15299h143.74946v76.15299z" fill="none" stroke="#ffffff" stroke-width="3"/><path d="M290.55456,186.78801v-19.67998h76.95495v19.67998z" fill="none" stroke="#ffffff" stroke-width="3"/><path d="M280.28674,214.16886v-7.70086h9.83999v7.70086z" fill="none" stroke="#ffffff" stroke-width="3"/><path d="M257.18415,261.65752v-59.03996h22.24694v59.03996z" fill="none" stroke="#ffffff" stroke-width="3"/><path d="M434.78237,242.28317v-44.12561h32.61458v44.12561z" fill="none" stroke="#ffffff" stroke-width="3"/><path d="M376.58774,186.00704v-54.99713h56.91563v54.99713z" fill="none" stroke="#ffffff" stroke-width="3"/><path d="M406.73432,343.30035v-66.99724h41.42303v66.99724z" fill="none" stroke="#ffffff" stroke-width="3"/><path d="M334.38064,275.53725v-11.51103h12.15053v11.51103z" fill="none" stroke="#ffffff" stroke-width="3"/><path d="M410.03053,275.53725v-11.51103h12.15053v11.51103z" fill="none" stroke="#ffffff" stroke-width="3"/><path d="M373.90955,329.84666v-8.15709h8.1571v8.15709z" fill="#ffffff" stroke="none" stroke-width="0"/><text transform="translate(370.36299,318.26963) scale(0.1995,0.1995)" font-size="40" xml:space="preserve" fill="#ffffff" fill-rule="nonzero" stroke="none" stroke-width="1" stroke-linecap="butt" stroke-linejoin="miter" stroke-miterlimit="10" stroke-dasharray="" stroke-dashoffset="0" font-family="Pixel" font-weight="normal" text-anchor="start" style="mix-blend-mode: normal"><tspan x="0" dy="0">You</tspan></text></g><path d="M440.41287,71.4362c0,-8.00813 6.49187,-14.5 14.5,-14.5c8.00813,0 14.5,6.49187 14.5,14.5c0,8.00813 -6.49187,14.5 -14.5,14.5c-8.00813,0 -14.5,-6.49187 -14.5,-14.5z" fill="#ff0000" stroke="none" stroke-width="0"/></g></g></svg>