<svg version="1.1" xmlns="http://www.w3.org/2000/svg" xmlns:xlink="http://www.w3.org/1999/xlink" width="415.5" height="310.54842" viewBox="0,0,415.5,310.54842"><g transform="translate(-32.25,-308.72579)"><g data-paper-data="{&quot;isPaintingLayer&quot;:true}" fill-rule="nonzero" stroke="#000000" stroke-width="3.5" stroke-linecap="butt" stroke-linejoin="miter" stroke-miterlimit="10" stroke-dasharray="" stroke-dashoffset="0" style="mix-blend-mode: normal"><g><path d="M34,617.52421v-307.04842h412v307.04842z" fill="#5c5c5c"/><path d="M48.21462,603.21263v-278.42526h383.57075v278.42526z" fill="#000000"/><path d="M422.01264,610.44053c0,-2.15565 1.7475,-3.90316 3.90316,-3.90316c2.15565,0 3.90316,1.7475 3.90316,3.90316c0,2.15565 -1.7475,3.90316 -3.90316,3.90316c-2.15565,0 -3.90316,-1.7475 -3.90316,-3.90316z" fill="#ff0000"/><path d="M409.86949,610.44053c0,-2.15565 1.7475,-3.90316 3.90316,-3.90316c2.15565,0 3.90316,1.7475 3.90316,3.90316c0,2.15565 -1.7475,3.90316 -3.90316,3.90316c-2.15565,0 -3.90316,-1.7475 -3.90316,-3.90316z" fill="#1dff00"/></g></g></g></svg>