<svg version="1.1" xmlns="http://www.w3.org/2000/svg" xmlns:xlink="http://www.w3.org/1999/xlink" width="110.93935" height="249.46985" viewBox="0,0,110.93935,249.46985"><g transform="translate(-184.75,-55.28581)"><g data-paper-data="{&quot;isPaintingLayer&quot;:true}" fill-rule="nonzero" stroke-linejoin="miter" stroke-miterlimit="10" stroke-dasharray="" stroke-dashoffset="0" style="mix-blend-mode: normal"><path d="M186.5,302.81081v-245.62162l107,9l-3,225.62162z" fill="none" stroke="#000000" stroke-width="3.5" stroke-linecap="butt"/><path d="M279.05987,291.32954l1.63764,-225.99407l12.75825,1.61411l-3.38047,226.49151z" fill="#2c2c2c" stroke="#000000" stroke-width="3.5" stroke-linecap="round"/><path d="M188.79488,59.14381l102.60917,9.08938l-0.72249,16.51476l-102.05724,-9.61648z" fill="#8a8a8a" stroke="none" stroke-width="0" stroke-linecap="round"/><path d="M188.79488,74.14381l102.60917,9.08938l-0.72249,16.51476l-102.05724,-9.61648z" fill="#8a8a8a" stroke="none" stroke-width="0" stroke-linecap="round"/><path d="M188.79488,89.14381l102.60917,9.08938l-0.72249,16.51476l-102.05724,-9.61648z" fill="#8a8a8a" stroke="none" stroke-width="0" stroke-linecap="round"/><path d="M188.79488,104.14381l102.60917,9.08938l-0.72249,16.51476l-102.05724,-9.61648z" fill="#8a8a8a" stroke="none" stroke-width="0" stroke-linecap="round"/><path d="M188.79488,117.14381l102.60917,9.08938l-0.72249,16.51476l-102.05724,-9.61648z" fill="#8a8a8a" stroke="none" stroke-width="0" stroke-linecap="round"/><path d="M188.79488,132.14381l102.60917,9.08938l-0.72249,16.51476l-102.05724,-9.61648z" fill="#8a8a8a" stroke="none" stroke-width="0" stroke-linecap="round"/><path d="M188.79488,147.14381l102.60917,9.08938l-0.72249,16.51476l-102.05724,-9.61648z" fill="#8a8a8a" stroke="none" stroke-width="0" stroke-linecap="round"/><path d="M188.79488,162.14381l102.60917,9.08938l-0.72249,16.51476l-102.05724,-9.61648z" fill="#8a8a8a" stroke="none" stroke-width="0" stroke-linecap="round"/><path d="M188.79488,176.14381l102.60917,9.08938l-0.72249,16.51476l-102.05724,-9.61648z" fill="#8a8a8a" stroke="none" stroke-width="0" stroke-linecap="round"/><path d="M188.79488,191.14381l102.60917,9.08938l-0.72249,16.51476l-102.05724,-9.61648z" fill="#8a8a8a" stroke="none" stroke-width="0" stroke-linecap="round"/><path d="M188.79488,204.14381l102.60917,9.08938l-0.72249,16.51476l-102.05724,-9.61648z" fill="#8a8a8a" stroke="none" stroke-width="0" stroke-linecap="round"/><path d="M188.79488,219.14381l102.60917,9.08938l-0.72249,16.51476l-102.05724,-9.61648z" fill="#8a8a8a" stroke="none" stroke-width="0" stroke-linecap="round"/><path d="M188.79488,234.14381l102.60917,9.08938l-0.72249,16.51476l-102.05724,-9.61648z" fill="#8a8a8a" stroke="none" stroke-width="0" stroke-linecap="round"/><path d="M188.79488,249.14381l102.60917,9.08938l-0.72249,16.51476l-102.05724,-9.61648z" fill="#8a8a8a" stroke="none" stroke-width="0" stroke-linecap="round"/><path d="M293.93935,67.16625l-4,225" fill="none" stroke="#000000" stroke-width="3.5" stroke-linecap="round"/></g></g></svg>