<svg version="1.1" xmlns="http://www.w3.org/2000/svg" xmlns:xlink="http://www.w3.org/1999/xlink" width="436.52102" height="456.55835" viewBox="0,0,436.52102,456.55835"><g transform="translate(-21.73949,-112.98879)"><g data-paper-data="{&quot;isPaintingLayer&quot;:true}" fill-rule="nonzero" stroke="#000000" stroke-width="3.5" stroke-linecap="butt" stroke-linejoin="miter" stroke-miterlimit="10" stroke-dasharray="" stroke-dashoffset="0" style="mix-blend-mode: normal"><path d="M23.48949,437.4534v-322.71461h433.02102v322.71461z" fill="#5c5c5c"/><path d="M38.42937,422.41162v-292.63104h403.14126v292.63104z" fill="#000000"/><path d="M422.01264,563.89398c0,-2.15565 1.7475,-3.90316 3.90316,-3.90316c2.15565,0 3.90316,1.7475 3.90316,3.90316c0,2.15565 -1.7475,3.90316 -3.90316,3.90316c-2.15565,0 -3.90316,-1.7475 -3.90316,-3.90316z" fill="#ff0000"/><path d="M409.86949,563.89398c0,-2.15565 1.7475,-3.90316 3.90316,-3.90316c2.15565,0 3.90316,1.7475 3.90316,3.90316c0,2.15565 -1.7475,3.90316 -3.90316,3.90316c-2.15565,0 -3.90316,-1.7475 -3.90316,-3.90316z" fill="#1dff00"/></g></g></svg>