<svg version="1.1" xmlns="http://www.w3.org/2000/svg" xmlns:xlink="http://www.w3.org/1999/xlink" width="101.01622" height="249.50549" viewBox="0,0,101.01622,249.50549"><defs><radialGradient cx="265.69013" cy="162.17253" r="27.04762" gradientUnits="userSpaceOnUse" id="color-1"><stop offset="0" stop-color="#ffffff"/><stop offset="1" stop-color="#ffffff" stop-opacity="0"/></radialGradient><radialGradient cx="223.75607" cy="160.91465" r="27.04762" gradientUnits="userSpaceOnUse" id="color-2"><stop offset="0" stop-color="#ffffff"/><stop offset="1" stop-color="#ffffff" stop-opacity="0"/></radialGradient></defs><g transform="translate(-194.96479,-55.27021)"><g data-paper-data="{&quot;isPaintingLayer&quot;:true}" fill-rule="nonzero" stroke-linecap="butt" stroke-linejoin="miter" stroke-miterlimit="10" stroke-dasharray="" stroke-dashoffset="0" style="mix-blend-mode: normal"><path d="M199.46778,291.81082l-2.73355,-225.62162l97.49678,-9v245.62162z" data-paper-data="{&quot;index&quot;:null}" fill="#161616" stroke="#000000" stroke-width="3.5"/><path d="M247.51313,173.51418c0,0 3.55792,-3.55792 6.32145,-6.32145c5.2642,-5.2642 22.93782,-22.93782 22.93782,-22.93782c0,0 8.07431,21.18496 0,29.25927c-8.07432,8.07431 -29.25927,0 -29.25927,0z" data-paper-data="{&quot;index&quot;:null}" fill="#ffffff" stroke="none" stroke-width="0"/><path d="M211.6834,173.20759c-8.07431,-8.07431 0,-29.25927 0,-29.25927c0,0 17.67362,17.67362 22.93782,22.93782c2.76353,2.76353 6.32145,6.32145 6.32145,6.32145c0,0 -21.18495,8.07431 -29.25927,0z" fill="#ffffff" stroke="none" stroke-width="0"/><path d="M238.64251,162.17253c0,-14.93799 12.10963,-27.04762 27.04762,-27.04762c14.93799,0 27.04762,12.10963 27.04762,27.04762c0,14.93799 -12.10963,27.04762 -27.04762,27.04762c-14.93799,0 -27.04762,-12.10963 -27.04762,-27.04762z" fill="url(#color-1)" stroke="none" stroke-width="0"/><path d="M196.70845,160.91465c0,-14.93799 12.10963,-27.04762 27.04762,-27.04762c14.93799,0 27.04762,12.10963 27.04762,27.04762c0,14.93799 -12.10963,27.04762 -27.04762,27.04762c-14.93799,0 -27.04762,-12.10963 -27.04762,-27.04762z" fill="url(#color-2)" stroke="none" stroke-width="0"/></g></g></svg>