<svg version="1.1" xmlns="http://www.w3.org/2000/svg" xmlns:xlink="http://www.w3.org/1999/xlink" width="110.93935" height="249.46985" viewBox="0,0,110.93935,249.46985"><g transform="translate(-184.75,-55.28581)"><g data-paper-data="{&quot;isPaintingLayer&quot;:true}" fill-rule="nonzero" stroke-linejoin="miter" stroke-miterlimit="10" stroke-dasharray="" stroke-dashoffset="0" style="mix-blend-mode: normal"><path d="M189.93935,291.81081l-3,-225.62162l107,-9v245.62162z" data-paper-data="{&quot;index&quot;:null}" fill="#8a8a8a" stroke="#000000" stroke-width="3.5" stroke-linecap="butt"/><path d="M190.36406,293.44109l-3.38047,-226.49151l12.75825,-1.61411l1.63764,225.99407z" data-paper-data="{&quot;index&quot;:null}" fill="#8a8a8a" stroke="#000000" stroke-width="3.5" stroke-linecap="round"/><path d="M291.81503,75.13147l-102.05724,9.61648l-0.72249,-16.51476l102.60917,-9.08938z" data-paper-data="{&quot;index&quot;:null}" fill="#8a8a8a" stroke="none" stroke-width="0" stroke-linecap="round"/><path d="M291.81503,90.13147l-102.05724,9.61648l-0.72249,-16.51476l102.60917,-9.08938z" data-paper-data="{&quot;index&quot;:null}" fill="#8a8a8a" stroke="none" stroke-width="0" stroke-linecap="round"/><path d="M291.81503,105.13147l-102.05724,9.61648l-0.72249,-16.51476l102.60917,-9.08938z" data-paper-data="{&quot;index&quot;:null}" fill="#8a8a8a" stroke="none" stroke-width="0" stroke-linecap="round"/><path d="M291.81503,120.13147l-102.05724,9.61648l-0.72249,-16.51476l102.60917,-9.08938z" data-paper-data="{&quot;index&quot;:null}" fill="#8a8a8a" stroke="none" stroke-width="0" stroke-linecap="round"/><path d="M291.81503,133.13147l-102.05724,9.61648l-0.72249,-16.51476l102.60917,-9.08938z" data-paper-data="{&quot;index&quot;:null}" fill="#8a8a8a" stroke="none" stroke-width="0" stroke-linecap="round"/><path d="M291.81503,148.13147l-102.05724,9.61648l-0.72249,-16.51476l102.60917,-9.08938z" data-paper-data="{&quot;index&quot;:null}" fill="#8a8a8a" stroke="none" stroke-width="0" stroke-linecap="round"/><path d="M291.81503,163.13147l-102.05724,9.61648l-0.72249,-16.51476l102.60917,-9.08938z" data-paper-data="{&quot;index&quot;:null}" fill="#8a8a8a" stroke="none" stroke-width="0" stroke-linecap="round"/><path d="M291.81503,178.13147l-102.05724,9.61648l-0.72249,-16.51476l102.60917,-9.08938z" data-paper-data="{&quot;index&quot;:null}" fill="#8a8a8a" stroke="none" stroke-width="0" stroke-linecap="round"/><path d="M291.81503,192.13147l-102.05724,9.61648l-0.72249,-16.51476l102.60917,-9.08938z" data-paper-data="{&quot;index&quot;:null}" fill="#8a8a8a" stroke="none" stroke-width="0" stroke-linecap="round"/><path d="M291.81503,207.13147l-102.05724,9.61648l-0.72249,-16.51476l102.60917,-9.08938z" data-paper-data="{&quot;index&quot;:null}" fill="#8a8a8a" stroke="none" stroke-width="0" stroke-linecap="round"/><path d="M291.81503,220.13147l-102.05724,9.61648l-0.72249,-16.51476l102.60917,-9.08938z" data-paper-data="{&quot;index&quot;:null}" fill="#8a8a8a" stroke="none" stroke-width="0" stroke-linecap="round"/><path d="M291.81503,235.13147l-102.05724,9.61648l-0.72249,-16.51476l102.60917,-9.08938z" data-paper-data="{&quot;index&quot;:null}" fill="#8a8a8a" stroke="none" stroke-width="0" stroke-linecap="round"/><path d="M291.81503,250.13147l-102.05724,9.61648l-0.72249,-16.51476l102.60917,-9.08938z" data-paper-data="{&quot;index&quot;:null}" fill="#8a8a8a" stroke="none" stroke-width="0" stroke-linecap="round"/><path d="M291.81503,265.13147l-102.05724,9.61648l-0.72249,-16.51476l102.60917,-9.08938z" data-paper-data="{&quot;index&quot;:null}" fill="#8a8a8a" stroke="none" stroke-width="0" stroke-linecap="round"/><path d="M186.5,67.16625l4,225" data-paper-data="{&quot;index&quot;:null}" fill="none" stroke="#000000" stroke-width="3.5" stroke-linecap="round"/><path d="M198.75669,281.99105c0.00215,-0.09329 0.00439,-0.18656 0.00673,-0.27981c-0.13768,0.12675 -0.29459,0.23409 -0.48385,0.32347c0.16588,0.00559 0.33074,-0.00074 0.47712,-0.04366zM199.29645,273.18411c-0.11565,-1.67799 -0.2358,-3.32942 -0.2358,-4.85162c0,0 0,-2.5 2.5,-2.5c2.5,0 2.5,2.5 2.5,2.5c0,1.18017 0.0091,2.36166 0.01849,3.54357c0.36255,0.74551 0.26337,1.53895 0.26337,1.53895c-0.09415,0.7523 -0.17446,1.50094 -0.24293,2.24721c0.00003,1.22433 -0.00969,2.44808 -0.03892,3.67027c-0.03157,1.32005 0.38566,2.76852 -0.1903,3.95671c-0.04493,0.09269 -0.09254,0.18399 -0.14272,0.27387c-0.0103,0.771 -0.01559,1.54442 -0.01811,2.32172c6.48388,1.04115 13.22177,1.93578 19.70436,2.39273c0,0 2.49365,0.17811 2.31553,2.67176c-0.17811,2.49365 -2.67176,2.31553 -2.67176,2.31553c-4.99017,-0.36078 -10.12004,-0.96693 -15.17941,-1.69457c-0.83543,0.52695 -1.8473,0.3583 -1.8473,0.3583c-1.66194,-0.28294 -3.3557,-0.40765 -5.04154,-0.40219h-2.61722c0,0 -0.71809,0 -1.38456,-0.38486l-1.86832,0.15569c-0.07793,0.00732 -0.1569,0.01106 -0.23674,0.01106c-1.38071,0 -2.5,-1.11929 -2.5,-2.5c0,-1.03175 0.62501,-1.91753 1.51707,-2.29936l0.5017,-0.22805c-1.2063,-0.73243 -2.10119,-2.01243 -2.34068,-3.94833c-0.18044,-1.45856 1.72911,-2.37728 2.56664,-3.58497c0.6849,-0.9876 1.33333,-2 2,-3l2.16559,-2.18279c0,0 0.18835,-0.18835 0.50357,-0.38061z" data-paper-data="{&quot;index&quot;:null}" fill="#8a8a8a" stroke="none" stroke-width="0.5" stroke-linecap="butt"/></g></g></svg>