<svg version="1.1" xmlns="http://www.w3.org/2000/svg" xmlns:xlink="http://www.w3.org/1999/xlink" width="26.26074" height="29.11354" viewBox="0,0,26.26074,29.11354"><g transform="translate(-226.86963,-165.44323)"><g data-paper-data="{&quot;isPaintingLayer&quot;:true}" fill="#ffffff" fill-rule="nonzero" stroke="none" stroke-width="0.5" stroke-linecap="butt" stroke-linejoin="miter" stroke-miterlimit="10" stroke-dasharray="" stroke-dashoffset="0" style="mix-blend-mode: normal"><path d="M231.13265,194.23403c-0.55951,-0.45957 -0.40872,-0.91834 -0.2233,-1.19267c-0.0041,-0.13059 0.01619,-0.22009 0.01619,-0.22009c0.86451,-3.80694 2.03019,-7.51064 3.21093,-11.22311c-1.97118,-2.09414 -3.9421,-4.18794 -5.95981,-6.25735l-0.90332,-0.68519c-0.24819,-0.18712 -0.4037,-0.45546 -0.4037,-0.75355c0,-0.56549 0.55964,-1.02391 1.25,-1.02391c0.01308,0 0.02612,0.00016 0.0391,0.00049l2.49367,0.05506l-0.00666,0.20248c1.95044,-0.11248 3.93675,-0.1082 5.93224,-0.06955c0.46056,-2.62038 0.64755,-5.07393 2.36735,-7.62342c0.97273,0.42638 2.19266,0.59834 2.91818,1.27914c0.66993,0.62864 1.64725,4.4398 1.9129,5.32673c0.11573,0.38638 0.22389,0.77393 0.32569,1.16248c0.84259,-0.00229 1.68076,-0.01718 2.51242,-0.05107c1.1654,-0.04748 5.50858,-1.1494 6.30909,-0.09073c0.87826,1.16149 -1.28752,3.40555 -1.90254,4.13597c-1.51832,1.80325 -3.38547,3.40413 -5.15552,5.07252c0.20711,1.09234 0.43602,2.18104 0.71242,3.26201c0.37055,1.44919 1.05553,2.90819 1.04532,4.40771c-0.00534,0.78434 0.56927,1.85634 -0.17619,2.34862c-0.84001,0.55472 -2.26752,0.2955 -3.23485,-0.09606c-0.88231,-0.35715 -1.17699,-1.29235 -1.77574,-1.93215c-0.74593,-0.79707 -1.51316,-1.58267 -2.28188,-2.36661c-2.22992,2.23851 -4.44332,4.48221 -7.22052,6.29787l-0.03369,0.03636c0,0 -0.8851,0.72302 -1.76777,-0.00199z"/></g></g></svg>