<svg version="1.1" xmlns="http://www.w3.org/2000/svg" xmlns:xlink="http://www.w3.org/1999/xlink" width="415.5" height="403.464" viewBox="0,0,415.5,403.464"><g transform="translate(-32.25,-166.08315)"><g data-paper-data="{&quot;isPaintingLayer&quot;:true}" fill-rule="nonzero" stroke="#000000" stroke-width="3.5" stroke-linecap="butt" stroke-linejoin="miter" stroke-miterlimit="10" stroke-dasharray="" stroke-dashoffset="0" style="mix-blend-mode: normal"><path d="M34,474.88157v-307.04842h412v307.04842z" fill="#5c5c5c"/><path d="M48.21462,460.56999v-278.42526h383.57075v278.42526z" fill="#000000"/><path d="M422.01264,563.89398c0,-2.15565 1.7475,-3.90316 3.90316,-3.90316c2.15565,0 3.90316,1.7475 3.90316,3.90316c0,2.15565 -1.7475,3.90316 -3.90316,3.90316c-2.15565,0 -3.90316,-1.7475 -3.90316,-3.90316z" fill="#ff0000"/><path d="M409.86949,563.89398c0,-2.15565 1.7475,-3.90316 3.90316,-3.90316c2.15565,0 3.90316,1.7475 3.90316,3.90316c0,2.15565 -1.7475,3.90316 -3.90316,3.90316c-2.15565,0 -3.90316,-1.7475 -3.90316,-3.90316z" fill="#1dff00"/></g></g></svg>